<svg width="100" height="100" viewBox="0 0 100 100" fill="none" xmlns="http://www.w3.org/2000/svg">
<rect width="100" height="100" rx="6" fill="#2A9D8F"/>
<g clip-path="url(#clip0_1_231)">
<path d="M39.375 25.5V30.1575C36.5737 29.0438 33.57 28.47 30.5662 28.47C24.525 28.47 18.4837 30.765 13.86 35.3887L25.0987 46.6275H28.845V50.3737C31.7475 53.2762 35.5275 54.795 39.3412 54.9637V62.625H29.25V72.75C29.25 76.4625 32.2875 79.5 36 79.5H69.75C75.3525 79.5 79.875 74.9775 79.875 69.375V25.5H39.375ZM35.6287 47.1337V39.8775H27.9337L24.4237 36.3675C26.3475 35.625 28.44 35.22 30.5662 35.22C35.0887 35.22 39.3075 36.975 42.5137 40.1475L47.2725 44.9062L46.5975 45.5812C44.8762 47.3025 42.5812 48.2812 40.1175 48.2812C38.5312 48.2812 36.9787 47.8762 35.6287 47.1337ZM73.125 69.375C73.125 71.2313 71.6062 72.75 69.75 72.75C67.8937 72.75 66.375 71.2313 66.375 69.375V62.625H46.125V53.8837C48.0487 53.1075 49.8375 51.96 51.39 50.4075L52.065 49.7325L61.6162 59.25H66.375V54.4913L46.125 34.3425V32.25H73.125V69.375Z" fill="#F4A261"/>
</g>
<defs>
<clipPath id="clip0_1_231">
<rect width="81" height="81" fill="white" transform="translate(9 12)"/>
</clipPath>
</defs>
</svg>
