<svg width="100" height="100" viewBox="0 0 100 100" fill="none" xmlns="http://www.w3.org/2000/svg">
<rect width="100" height="100" rx="50" fill="#F4A261"/>
<g clip-path="url(#clip0_1_332)">
<path d="M63.1875 49.4999C67.385 49.4999 70.7612 46.0933 70.7612 41.8958C70.7612 37.6983 67.385 34.2916 63.1875 34.2916C58.99 34.2916 55.5833 37.6983 55.5833 41.8958C55.5833 46.0933 58.99 49.4999 63.1875 49.4999ZM40.375 46.4583C45.4241 46.4583 49.4696 42.3824 49.4696 37.3333C49.4696 32.2841 45.4241 28.2083 40.375 28.2083C35.3258 28.2083 31.25 32.2841 31.25 37.3333C31.25 42.3824 35.3258 46.4583 40.375 46.4583ZM63.1875 55.5833C57.6212 55.5833 46.4583 58.3816 46.4583 63.9478V70.7916H79.9166V63.9478C79.9166 58.3816 68.7537 55.5833 63.1875 55.5833ZM40.375 52.5416C33.2879 52.5416 19.0833 56.1003 19.0833 63.1874V70.7916H40.375V63.9478C40.375 61.3624 41.3787 56.8303 47.5837 53.3933C44.9375 52.8458 42.3825 52.5416 40.375 52.5416Z" fill="#264653"/>
</g>
<defs>
<clipPath id="clip0_1_332">
<rect width="73" height="73" fill="white" transform="translate(13 13)"/>
</clipPath>
</defs>
</svg>
