<svg width="100" height="100" viewBox="0 0 100 100" fill="none" xmlns="http://www.w3.org/2000/svg">
<g clip-path="url(#clip0_1_241)">
<rect width="100" height="100" rx="6" fill="#2A9D8F"/>
<g clip-path="url(#clip1_1_241)">
<path d="M71.6111 24.375H41.0555V31.0417L46.0833 35.0694C46.4166 35.3194 46.6111 35.7361 46.6111 36.1528V47.9861C46.6111 48.7639 46 49.375 45.2222 49.375H34.1111C33.3333 49.375 32.7222 48.7639 32.7222 47.9861V36.1528C32.7222 35.7361 32.9166 35.3194 33.25 35.0694L38.2777 31.0417V24.375H27.1666V52.1528C27.1666 58.2917 32.1388 63.2639 38.2777 63.2639H54.9444C61.0833 63.2639 66.0555 58.2917 66.0555 52.1528V43.8194H71.6111C74.6944 43.8194 77.1666 41.3194 77.1666 38.2639V29.9306C77.1666 26.8472 74.6944 24.375 71.6111 24.375ZM71.6111 38.2639H66.0555V29.9306H71.6111V38.2639Z" fill="#F4A261"/>
<path d="M71.6111 68.8195H27.1666V74.375H71.6111V68.8195Z" fill="#F4A261"/>
</g>
</g>
<defs>
<clipPath id="clip0_1_241">
<rect width="100" height="100" fill="white"/>
</clipPath>
<clipPath id="clip1_1_241">
<rect width="67" height="67" fill="white" transform="translate(16 16)"/>
</clipPath>
</defs>
</svg>
